REM DIRINDEX 1\2,1\3,1\4,1\5
REM DIRNAME cjc046,folder01,folder02,folder03,folder04
TITLE ""
FILE "167.mp3" MP3
  TRACK 01 AUDIO
    TITLE "0:"
    INDEX 01 00:00:00
  TRACK 02 AUDIO
    TITLE "2:cjc046_4975"
    INDEX 01 00:00:13
  TRACK 03 AUDIO
    TITLE "0:"
    INDEX 01 00:01:24
  TRACK 04 AUDIO
    TITLE "3:cjc046_4976"
    INDEX 01 00:01:32
  TRACK 05 AUDIO
    TITLE "0:"
    INDEX 01 00:02:47
  TRACK 06 AUDIO
    TITLE "4:cjc046_4977"
    INDEX 01 00:02:65
  TRACK 07 AUDIO
    TITLE "0:"
    INDEX 01 00:03:74
  TRACK 08 AUDIO
    TITLE "2:cjc046_4978"
    INDEX 01 00:05:05
  TRACK 09 AUDIO
    TITLE "0:"
    INDEX 01 00:06:12
  TRACK 10 AUDIO
    TITLE "3:cjc046_4979"
    INDEX 01 00:06:31
  TRACK 11 AUDIO
    TITLE "0:"
    INDEX 01 00:07:62
  TRACK 12 AUDIO
    TITLE "4:cjc046_4980"
    INDEX 01 00:07:74
  TRACK 13 AUDIO
    TITLE "0:"
    INDEX 01 00:09:06
  TRACK 14 AUDIO
    TITLE "2:cjc046_4981"
    INDEX 01 00:10:18
  TRACK 15 AUDIO
    TITLE "0:"
    INDEX 01 00:11:23
  TRACK 16 AUDIO
    TITLE "3:cjc046_4982"
    INDEX 01 00:11:44
  TRACK 17 AUDIO
    TITLE "0:"
    INDEX 01 00:12:32
  TRACK 18 AUDIO
    TITLE "4:cjc046_4983"
    INDEX 01 00:12:50
  TRACK 19 AUDIO
    TITLE "0:"
    INDEX 01 00:13:57
  TRACK 20 AUDIO
    TITLE "2:cjc046_4984"
    INDEX 01 00:14:66
  TRACK 21 AUDIO
    TITLE "0:"
    INDEX 01 00:16:06
  TRACK 22 AUDIO
    TITLE "3:cjc046_4985"
    INDEX 01 00:16:26
  TRACK 23 AUDIO
    TITLE "0:"
    INDEX 01 00:17:18
  TRACK 24 AUDIO
    TITLE "4:cjc046_4986"
    INDEX 01 00:17:39
  TRACK 25 AUDIO
    TITLE "0:"
    INDEX 01 00:18:54
  TRACK 26 AUDIO
    TITLE "2:cjc046_4987"
    INDEX 01 00:19:60
  TRACK 27 AUDIO
    TITLE "0:"
    INDEX 01 00:20:69
  TRACK 28 AUDIO
    TITLE "3:cjc046_4988"
    INDEX 01 00:21:17
  TRACK 29 AUDIO
    TITLE "0:"
    INDEX 01 00:22:42
  TRACK 30 AUDIO
    TITLE "4:cjc046_4989"
    INDEX 01 00:22:54
  TRACK 31 AUDIO
    TITLE "0:"
    INDEX 01 00:23:65
  TRACK 32 AUDIO
    TITLE "2:cjc046_4990"
    INDEX 01 00:25:01
  TRACK 33 AUDIO
    TITLE "0:"
    INDEX 01 00:26:18
  TRACK 34 AUDIO
    TITLE "3:cjc046_4991"
    INDEX 01 00:26:36
  TRACK 35 AUDIO
    TITLE "0:"
    INDEX 01 00:27:26
  TRACK 36 AUDIO
    TITLE "4:cjc046_4992"
    INDEX 01 00:27:41
  TRACK 37 AUDIO
    TITLE "0:"
    INDEX 01 00:28:57
  TRACK 38 AUDIO
    TITLE "2:cjc046_4993"
    INDEX 01 00:29:68
  TRACK 39 AUDIO
    TITLE "0:"
    INDEX 01 00:31:27
  TRACK 40 AUDIO
    TITLE "3:cjc046_4994"
    INDEX 01 00:31:47
  TRACK 41 AUDIO
    TITLE "0:"
    INDEX 01 00:33:21
  TRACK 42 AUDIO
    TITLE "4:cjc046_4995"
    INDEX 01 00:33:40
  TRACK 43 AUDIO
    TITLE "0:"
    INDEX 01 00:35:00
  TRACK 44 AUDIO
    TITLE "2:cjc046_4996"
    INDEX 01 00:36:07
  TRACK 45 AUDIO
    TITLE "0:"
    INDEX 01 00:37:30
  TRACK 46 AUDIO
    TITLE "3:cjc046_4997"
    INDEX 01 00:37:52
  TRACK 47 AUDIO
    TITLE "0:"
    INDEX 01 00:39:13
  TRACK 48 AUDIO
    TITLE "4:cjc046_4998"
    INDEX 01 00:39:25
  TRACK 49 AUDIO
    TITLE "0:"
    INDEX 01 00:40:48
  TRACK 50 AUDIO
    TITLE "2:cjc046_4999"
    INDEX 01 00:41:55
  TRACK 51 AUDIO
    TITLE "0:"
    INDEX 01 00:42:74
  TRACK 52 AUDIO
    TITLE "3:cjc046_5000"
    INDEX 01 00:43:15
  TRACK 53 AUDIO
    TITLE "0:"
    INDEX 01 00:44:48
  TRACK 54 AUDIO
    TITLE "4:cjc046_5001"
    INDEX 01 00:44:61
  TRACK 55 AUDIO
    TITLE "0:"
    INDEX 01 00:46:02
  TRACK 56 AUDIO
    TITLE "2:cjc046_5002"
    INDEX 01 00:47:09
  TRACK 57 AUDIO
    TITLE "0:"
    INDEX 01 00:48:18
  TRACK 58 AUDIO
    TITLE "3:cjc046_5003"
    INDEX 01 00:48:44
  TRACK 59 AUDIO
    TITLE "0:"
    INDEX 01 00:49:59
  TRACK 60 AUDIO
    TITLE "4:cjc046_5004"
    INDEX 01 00:50:07
  TRACK 61 AUDIO
    TITLE "0:"
    INDEX 01 00:51:15
  TRACK 62 AUDIO
    TITLE "2:cjc046_5005"
    INDEX 01 00:52:32
  TRACK 63 AUDIO
    TITLE "0:"
    INDEX 01 00:53:27
  TRACK 64 AUDIO
    TITLE "3:cjc046_5006"
    INDEX 01 00:53:47
  TRACK 65 AUDIO
    TITLE "0:"
    INDEX 01 00:54:50
  TRACK 66 AUDIO
    TITLE "4:cjc046_5007"
    INDEX 01 00:54:68
  TRACK 67 AUDIO
    TITLE "0:"
    INDEX 01 00:55:63
  TRACK 68 AUDIO
    TITLE "2:cjc046_5008"
    INDEX 01 00:56:72
  TRACK 69 AUDIO
    TITLE "0:"
    INDEX 01 00:58:03
  TRACK 70 AUDIO
    TITLE "3:cjc046_5009"
    INDEX 01 00:58:22
  TRACK 71 AUDIO
    TITLE "0:"
    INDEX 01 00:59:47
  TRACK 72 AUDIO
    TITLE "4:cjc046_5010"
    INDEX 01 00:59:65
  TRACK 73 AUDIO
    TITLE "0:"
    INDEX 01 01:00:70
  TRACK 74 AUDIO
    TITLE "2:cjc046_5011"
    INDEX 01 01:02:05
  TRACK 75 AUDIO
    TITLE "0:"
    INDEX 01 01:03:08
  TRACK 76 AUDIO
    TITLE "3:cjc046_5012"
    INDEX 01 01:03:27
  TRACK 77 AUDIO
    TITLE "0:"
    INDEX 01 01:04:50
  TRACK 78 AUDIO
    TITLE "4:cjc046_5013"
    INDEX 01 01:04:58
  TRACK 79 AUDIO
    TITLE "0:"
    INDEX 01 01:05:62
  TRACK 80 AUDIO
    TITLE "2:cjc046_5014"
    INDEX 01 01:06:71
  TRACK 81 AUDIO
    TITLE "0:"
    INDEX 01 01:08:11
  TRACK 82 AUDIO
    TITLE "3:cjc046_5015"
    INDEX 01 01:08:33
  TRACK 83 AUDIO
    TITLE "0:"
    INDEX 01 01:09:59
  TRACK 84 AUDIO
    TITLE "4:cjc046_5016"
    INDEX 01 01:10:04
  TRACK 85 AUDIO
    TITLE "0:"
    INDEX 01 01:11:17
  TRACK 86 AUDIO
    TITLE "2:cjc046_5017"
    INDEX 01 01:12:24
  TRACK 87 AUDIO
    TITLE "0:"
    INDEX 01 01:13:45
  TRACK 88 AUDIO
    TITLE "3:cjc046_5018"
    INDEX 01 01:13:65
  TRACK 89 AUDIO
    TITLE "0:"
    INDEX 01 01:15:27
  TRACK 90 AUDIO
    TITLE "4:cjc046_5019"
    INDEX 01 01:15:35
  TRACK 91 AUDIO
    TITLE "0:"
    INDEX 01 01:16:54
  TRACK 92 AUDIO
    TITLE "2:cjc046_5020"
    INDEX 01 01:17:59
  TRACK 93 AUDIO
    TITLE "0:"
    INDEX 01 01:18:68
  TRACK 94 AUDIO
    TITLE "3:cjc046_5021"
    INDEX 01 01:19:17
  TRACK 95 AUDIO
    TITLE "0:"
    INDEX 01 01:20:51
  TRACK 96 AUDIO
    TITLE "4:cjc046_5022"
    INDEX 01 01:20:61
  TRACK 97 AUDIO
    TITLE "0:"
    INDEX 01 01:21:72
